<?xml version="1.0" standalone="no"?>
<!DOCTYPE svg PUBLIC "-//W3C//DTD SVG 20010904//EN"
 "http://www.w3.org/TR/2001/REC-SVG-20010904/DTD/svg10.dtd">
<svg version="1.0" xmlns="http://www.w3.org/2000/svg"
 width="512.000000pt" height="512.000000pt" viewBox="0 0 512.000000 512.000000"
 preserveAspectRatio="xMidYMid meet">
<metadata>
Created by potrace 1.16, written by Peter Selinger 2001-2019
</metadata>
<g transform="translate(0.000000,512.000000) scale(0.100000,-0.100000)"
fill="#000000" stroke="none">
<path d="M1462 4688 c-18 -18 -15 -32 13 -58 19 -18 22 -26 14 -37 -9 -10 -17
-8 -42 13 -27 23 -31 24 -46 10 -14 -15 -6 -26 89 -121 l105 -105 47 52 c40
45 47 59 48 95 0 57 -46 113 -95 113 -25 0 -34 5 -38 21 -5 18 -9 19 -27 9
-17 -9 -25 -8 -39 4 -13 12 -20 13 -29 4z"/>
<path d="M3523 4671 c-4 -16 -14 -21 -37 -21 -54 -1 -96 -51 -96 -115 1 -33 9
-48 48 -92 l48 -52 104 104 c98 98 103 106 88 122 -16 15 -19 15 -44 -10 -26
-26 -44 -28 -44 -3 0 7 9 21 20 31 11 10 20 24 20 32 0 19 -27 28 -44 13 -11
-9 -20 -9 -36 0 -18 10 -22 9 -27 -9z"/>
<path d="M2198 4041 c-14 -5 -12 -18 14 -106 16 -55 31 -102 34 -104 2 -2 15
2 29 9 33 18 58 74 51 114 -11 56 -81 104 -128 87z"/>
<path d="M2787 4014 c-35 -35 -43 -83 -22 -127 14 -30 59 -67 69 -56 2 2 17
50 34 107 l30 102 -43 0 c-32 0 -48 -6 -68 -26z"/>
<path d="M2914 3703 c6 -10 -75 -13 -391 -15 -219 0 -630 -2 -913 -3 -355 -2
-524 -6 -543 -14 -20 -8 -41 -8 -74 -1 -48 11 -123 5 -158 -13 -50 -25 -108
-109 -104 -153 1 -10 1 -47 1 -81 l-2 -63 -50 0 -50 0 0 55 0 55 -55 0 -55 0
0 -57 0 -58 45 1 c54 1 67 -12 63 -63 l-3 -38 -53 0 -52 0 0 -37 0 -38 108 -1
c59 0 133 0 165 1 l57 1 0 -205 0 -206 119 0 c103 0 120 2 125 17 4 10 6 102
5 205 -2 179 -3 188 -21 188 -18 0 -18 3 6 31 44 52 58 97 58 184 0 44 -5 93
-11 109 -9 23 -8 36 6 67 10 21 21 39 25 39 4 0 6 -449 6 -997 -1 -735 2
-1019 11 -1078 19 -126 49 -232 86 -305 36 -71 116 -166 159 -189 14 -8 26
-20 26 -26 0 -27 -62 -69 -122 -84 l-63 -16 5 -110 5 -110 66 65 c65 65 109
145 109 203 0 46 14 52 68 29 75 -32 214 -51 442 -58 113 -3 241 -12 284 -20
105 -17 193 -61 250 -125 l46 -51 44 49 c96 107 179 131 501 144 265 11 403
29 481 64 l52 23 11 -57 c17 -85 55 -154 119 -212 l57 -52 5 109 5 109 -37 7
c-64 12 -148 65 -148 93 0 6 12 18 26 26 48 25 127 123 166 205 70 146 79 214
88 674 4 223 5 694 2 1048 -3 429 -2 642 5 642 5 0 18 -17 27 -38 13 -30 15
-44 7 -66 -14 -35 -14 -170 -1 -215 5 -19 23 -52 40 -73 29 -35 29 -38 10 -38
-20 0 -21 -4 -20 -204 l1 -204 125 -1 124 -2 2 203 3 203 55 2 c30 1 103 2
163 2 l107 1 0 38 0 37 -50 -3 c-37 -3 -50 0 -51 10 0 7 -2 24 -4 38 -5 44 11
60 60 60 l45 0 0 55 0 55 -54 0 -55 0 -3 -52 -3 -53 -46 -3 c-54 -3 -62 7 -49
64 6 25 5 40 -1 42 -5 2 -7 19 -3 38 4 22 2 34 -5 34 -6 0 -11 9 -11 20 0 28
-56 87 -93 99 -59 18 -103 21 -152 12 -31 -6 -58 -5 -74 1 -16 6 -230 11 -548
13 -427 2 -526 5 -540 16 -11 9 -14 10 -9 2z m-1997 -123 c34 -12 63 -56 63
-97 0 -33 -39 -80 -76 -89 -36 -9 -84 7 -102 34 -14 21 -14 22 15 16 21 -4 35
-1 46 11 37 36 6 91 -45 81 -26 -5 -28 -4 -18 14 6 11 25 24 43 29 43 12 40
12 74 1z m769 -39 c37 -40 40 -41 41 -20 1 13 -5 31 -14 41 -9 10 -14 18 -12
19 39 8 59 8 63 0 4 -5 2 -12 -4 -16 -5 -3 -10 -42 -10 -86 0 -43 -4 -79 -9
-79 -5 0 -28 25 -52 55 -24 30 -47 54 -51 55 -5 0 -8 -18 -8 -40 0 -22 5 -40
10 -40 6 0 10 -7 10 -15 0 -16 -36 -20 -58 -6 -10 6 -10 10 2 20 20 17 20 115
0 132 -20 16 -8 29 25 25 17 -2 43 -19 67 -45z m217 -41 c24 -49 40 -90 37
-91 -51 -10 -105 0 -80 16 20 12 10 25 -20 25 -32 0 -37 -9 -18 -28 7 -7 8
-12 3 -13 -6 0 -20 -2 -33 -3 -29 -3 -36 8 -17 24 8 7 15 16 15 20 0 13 59
140 65 140 3 0 24 -40 48 -90z m327 79 c0 -4 -4 -11 -10 -14 -5 -3 -10 -35
-10 -71 0 -36 4 -64 10 -64 6 0 10 -6 10 -14 0 -10 -12 -13 -42 -11 -62 4 -63
4 -50 17 15 15 16 134 2 143 -6 4 -10 -5 -10 -19 0 -33 -15 -33 -45 2 -20 22
-27 25 -42 16 -14 -9 -18 -24 -18 -70 0 -58 1 -59 29 -62 16 -2 33 1 39 7 6 6
18 11 27 11 10 -1 6 -8 -13 -25 -36 -32 -77 -32 -116 1 -26 21 -31 33 -31 67
1 44 12 66 43 83 21 12 227 15 227 3z m144 0 c31 -15 56 -65 49 -102 -7 -34
-56 -77 -89 -77 -73 0 -118 67 -90 134 21 51 75 69 130 45z m147 -32 c17 -21
35 -37 40 -37 15 0 10 32 -7 51 -15 17 -14 18 9 24 32 8 54 -2 38 -18 -6 -6
-11 -46 -11 -89 0 -43 -4 -78 -8 -78 -4 0 -28 25 -52 55 -25 29 -48 54 -52 55
-5 0 -8 -18 -8 -40 0 -22 5 -40 10 -40 6 0 10 -6 10 -13 0 -9 -12 -14 -30 -15
-20 0 -30 4 -30 14 0 8 5 14 10 14 6 0 10 26 10 59 0 33 -4 63 -10 66 -22 14
-9 32 21 30 21 -1 39 -12 60 -38z m223 -49 c21 -50 33 -68 47 -68 17 0 19 8
19 64 0 36 -5 68 -10 71 -18 11 -2 21 39 23 38 3 62 -10 41 -23 -5 -3 -10 -35
-10 -71 0 -72 14 -83 57 -42 28 26 38 19 26 -19 l-10 -28 -122 -1 -122 0 6 23
c4 19 1 23 -19 23 -27 0 -42 -15 -26 -25 17 -10 1 -24 -22 -20 -30 6 -30 9
-13 41 8 16 26 56 40 88 30 71 36 68 79 -36z m424 57 c44 -52 13 -143 -50
-146 -13 -1 -40 -2 -61 -3 -36 -2 -64 13 -39 22 15 5 16 128 2 137 -24 15 4
23 63 20 52 -4 66 -9 85 -30z m180 -2 c4 -36 -13 -45 -23 -13 -4 13 -15 20
-31 20 -20 0 -24 -5 -24 -27 l0 -28 20 25 20 25 0 -55 0 -55 -20 25 -20 25 0
-32 c0 -26 4 -33 20 -33 11 0 28 9 37 20 10 11 21 20 25 20 5 0 8 -9 8 -20 0
-11 5 -20 10 -20 13 0 13 127 0 135 -20 12 3 26 39 24 48 -3 54 -7 36 -25 -10
-10 -15 -35 -15 -75 0 -54 2 -59 22 -59 12 0 32 10 45 22 28 26 35 21 24 -18
-7 -28 -10 -29 -67 -30 -32 0 -69 3 -80 7 -12 4 -25 5 -28 1 -9 -8 -125 -14
-144 -7 -12 4 -13 8 -4 17 15 15 16 134 2 143 -23 14 4 23 72 21 l73 -1 3 -32z
m891 26 c17 -6 36 -20 42 -30 9 -18 7 -19 -16 -13 -30 7 -65 -18 -65 -47 0
-30 30 -52 62 -45 26 5 28 4 18 -15 -13 -23 -49 -39 -87 -39 -34 0 -93 60 -93
95 0 40 31 84 65 94 41 12 38 12 74 0z m-2810 -284 c21 -21 24 -33 27 -128 4
-97 -4 -135 -21 -107 -10 17 -25 1 -25 -26 0 -20 4 -25 21 -22 15 2 23 -3 25
-16 4 -26 -5 -39 -19 -28 -7 6 -47 24 -90 42 -92 38 -91 42 18 87 90 38 92 57
7 61 -35 2 -70 -2 -77 -8 -17 -14 -24 13 -18 76 7 95 88 132 152 69z m1109
-607 l2 -628 -41 -30 c-128 -92 -306 -92 -422 2 -32 25 -43 29 -56 20 -106
-77 -166 -97 -270 -90 -68 5 -127 28 -188 75 l-33 24 0 630 0 629 503 -2 502
-3 3 -627z m1162 456 c36 -17 73 -34 83 -37 31 -11 18 -24 -63 -60 -104 -47
-107 -67 -10 -67 43 0 70 4 70 11 0 5 5 7 10 4 6 -3 10 -26 10 -51 0 -24 -4
-44 -10 -44 -5 0 -10 5 -10 10 0 6 -30 10 -70 10 -63 0 -70 -2 -70 -20 0 -10
12 -31 27 -45 27 -24 27 -25 6 -25 -52 0 -53 4 -53 136 0 76 4 124 10 124 6 0
10 -4 10 -10 0 -5 7 -7 15 -4 8 4 15 16 15 29 0 13 -7 25 -15 29 -8 3 -15 1
-15 -4 0 -6 -4 -10 -10 -10 -5 0 -10 14 -10 31 0 17 3 29 8 27 4 -2 36 -18 72
-34z m-819 -91 c17 -39 22 -76 28 -192 l7 -143 33 -30 34 -31 126 9 c203 14
226 13 255 -15 26 -25 35 -65 16 -76 -15 -10 -12 -213 5 -260 11 -30 11 -41 2
-47 -19 -12 -34 -9 -51 8 -15 14 -16 14 -16 0 0 -22 -58 -22 -67 1 -5 14 -8
13 -14 -5 -10 -26 -56 -30 -66 -6 -5 15 -7 15 -15 0 -13 -23 -68 -22 -68 2 -1
16 -2 16 -14 -1 -10 -13 -24 -17 -48 -15 -26 2 -34 8 -37 28 l-4 25 -6 -25
c-6 -20 -14 -26 -44 -28 -30 -3 -37 0 -37 15 -1 17 -1 17 -11 1 -6 -12 -22
-18 -44 -18 -31 0 -35 3 -35 25 0 14 -9 67 -20 118 -17 77 -19 118 -16 257 3
91 8 193 12 228 l7 62 -38 0 c-21 0 -35 3 -32 7 4 3 2 12 -4 19 -7 9 4 21 44
48 30 20 59 36 65 36 7 0 14 11 18 25 3 14 8 25 10 25 2 0 13 -21 25 -47z
m-1462 -110 c27 -22 41 -78 40 -158 -1 -52 -15 -131 -18 -97 -1 15 -137 17
-146 2 -17 -27 -24 10 -21 103 3 104 12 138 44 156 27 16 78 13 101 -6z m2381
-281 c0 -204 -7 -232 -54 -232 -28 0 -42 15 -51 53 -5 20 -13 27 -31 27 -13 0
-24 -4 -24 -10 0 -5 -4 -10 -10 -10 -6 0 -10 41 -10 103 1 87 3 99 14 85 10
-14 28 -18 74 -18 33 0 64 5 67 10 6 9 -8 14 -27 11 -5 0 -8 6 -8 14 0 8 7 15
15 15 8 0 15 7 15 15 0 23 -118 21 -136 -2 -12 -16 -13 -10 -14 40 0 54 11 74
24 42 8 -21 126 -22 126 -1 0 8 -7 16 -15 20 -26 10 -16 26 15 26 l30 0 0
-188z m-2359 -3 c19 -19 21 -30 17 -97 -5 -69 -8 -78 -34 -99 -28 -22 -28 -23
-6 -23 12 0 22 5 22 12 0 6 3 8 7 4 10 -10 12 -255 2 -262 -5 -3 -9 0 -9 5 0
7 -28 11 -71 11 -60 0 -70 -2 -67 -17 2 -10 31 -28 73 -45 38 -16 74 -33 79
-38 6 -6 -20 -23 -72 -47 -59 -26 -82 -41 -82 -55 0 -15 9 -18 63 -18 35 0 68
5 74 11 14 14 26 -32 17 -67 -6 -22 -8 -24 -16 -10 -7 12 -24 16 -73 16 -58 0
-65 -2 -65 -20 0 -18 7 -20 74 -20 41 0 77 -4 80 -9 4 -5 -20 -32 -51 -60
l-58 -51 41 0 c22 0 45 5 52 12 7 7 13 8 13 3 6 -41 5 -56 -2 -61 -5 -3 -9 0
-9 5 0 7 -27 11 -70 11 -52 0 -70 -3 -70 -14 0 -9 19 -15 62 -19 71 -6 98 -28
98 -78 0 -48 -31 -69 -99 -69 -33 0 -63 -5 -66 -10 -12 -20 -25 2 -23 41 1 42
14 61 24 35 9 -24 120 -22 133 2 18 34 -4 52 -67 52 -32 0 -63 -5 -70 -12 -13
-13 -13 -15 -17 62 -2 42 1 48 44 88 l46 42 -32 0 c-18 0 -35 -5 -38 -10 -15
-24 -22 6 -24 105 -2 120 4 152 23 135 10 -7 23 -6 47 4 l34 15 -35 14 c-24
11 -39 12 -47 5 -20 -16 -25 11 -21 114 l3 93 33 3 c35 4 44 -13 12 -23 -13
-4 -20 -15 -20 -31 0 -19 5 -24 25 -24 14 0 25 5 25 10 0 6 -7 10 -15 10 -8 0
-15 6 -15 13 0 8 16 12 45 12 29 0 45 -4 45 -12 0 -7 -7 -13 -15 -13 -8 0 -15
-4 -15 -10 0 -5 11 -10 25 -10 20 0 25 5 25 25 0 14 -9 30 -20 37 -27 17 -25
28 6 28 14 0 23 4 19 10 -8 14 -128 13 -142 -1 -17 -17 -26 24 -18 82 10 73
38 95 83 64 19 -14 24 -14 47 1 23 15 34 35 18 33 -38 -6 -43 13 -8 29 30 14
35 52 6 52 -11 0 -23 -12 -31 -30 -34 -83 -122 -58 -118 33 1 35 3 37 35 37
36 0 45 -15 14 -25 -21 -6 -34 -31 -25 -46 11 -18 24 -9 44 30 28 56 64 67
101 30z m2199 -239 c0 -6 28 -10 64 -10 36 0 68 5 71 10 14 23 25 7 25 -40 0
-49 -12 -66 -24 -35 -4 13 -19 15 -68 13 -56 -3 -63 -5 -66 -25 -2 -14 5 -27
22 -38 29 -19 26 -36 -4 -28 -11 3 -20 1 -20 -5 0 -6 36 -25 80 -43 44 -18 80
-37 80 -41 0 -5 -36 -25 -80 -45 -60 -27 -80 -41 -80 -55 0 -18 6 -19 63 -16
34 2 70 8 80 12 14 7 17 3 17 -22 0 -23 -9 -38 -40 -62 -22 -17 -40 -36 -40
-41 0 -12 47 -12 55 1 12 20 25 9 25 -20 0 -29 -13 -40 -25 -20 -3 6 -42 10
-85 10 -94 0 -94 5 -13 70 l57 45 -43 3 c-32 2 -46 -1 -57 -15 -12 -16 -13 -7
-14 70 0 48 4 87 9 87 5 0 11 -5 13 -12 6 -17 28 0 28 22 0 22 -22 39 -28 22
-2 -7 -8 -12 -13 -12 -5 0 -9 52 -9 115 0 70 4 115 10 115 6 0 10 -4 10 -10z
m138 -555 c31 -36 30 -94 -3 -129 -19 -20 -33 -26 -68 -26 -70 0 -109 57 -87
125 22 67 111 84 158 30z m-1230 -246 c-3 -19 6 -24 60 -39 83 -23 143 -51
139 -64 -2 -6 -26 -20 -53 -31 -38 -15 -49 -24 -46 -39 3 -16 0 -18 -25 -11
-33 10 -40 10 -153 0 -65 -6 -100 -4 -149 9 -68 17 -121 49 -121 71 0 44 107
88 216 89 40 1 70 4 68 8 -3 4 10 12 28 17 18 5 34 10 36 10 2 1 2 -9 0 -20z
m348 -455 c91 -43 53 -174 -51 -174 -42 0 -84 36 -86 72 -3 62 8 83 56 104 39
17 41 17 81 -2z m-584 -45 c10 -11 18 -25 18 -30 0 -20 -42 -49 -70 -49 -25 0
-30 -4 -30 -23 0 -13 6 -29 13 -36 10 -11 4 -13 -36 -8 -56 6 -67 13 -44 30
20 15 34 121 18 131 -25 16 1 22 56 15 41 -6 63 -14 75 -30z m105 -21 c22 -9
24 -12 11 -15 -20 -5 -54 -102 -45 -128 11 -26 50 -14 66 20 8 17 15 47 15 68
1 38 15 47 46 27 13 -8 13 -11 -1 -22 -9 -7 -21 -32 -28 -56 -17 -60 -45 -86
-84 -78 -39 8 -67 33 -67 61 0 12 7 44 15 71 9 30 11 50 5 52 -6 2 -10 8 -10
14 0 11 31 5 77 -14z m299 7 c-3 -9 8 -46 24 -82 17 -36 30 -67 30 -69 0 -12
-42 0 -89 26 -30 17 -56 29 -58 27 -9 -10 22 -70 41 -76 19 -8 19 -9 -12 -25
-32 -17 -36 -15 -33 15 3 25 -37 109 -54 115 -22 9 -19 19 10 32 22 10 33 8
75 -13 27 -14 51 -25 54 -25 11 0 -9 43 -25 53 -24 15 -24 24 -1 30 35 9 44 7
38 -8z"/>
<path d="M2040 2596 c0 -25 -4 -48 -10 -51 -5 -3 -10 1 -10 9 0 9 -4 16 -10
16 -14 0 -12 -31 5 -80 8 -23 15 -76 15 -117 l0 -75 -35 31 c-38 33 -96 42
-118 19 -24 -25 -57 -96 -57 -122 l0 -25 36 24 c20 14 47 25 59 25 13 0 25 6
28 14 6 15 53 27 74 19 8 -3 13 -21 13 -44 0 -23 5 -39 11 -39 9 0 10 38 6
140 -6 138 -5 140 16 145 40 8 89 0 102 -18 7 -9 25 -17 42 -17 16 0 50 -13
76 -30 l47 -30 0 34 c0 19 -11 49 -25 70 -14 20 -25 39 -25 41 0 3 -9 14 -20
25 -39 39 -130 23 -187 -33 -32 -30 -43 -24 -24 11 5 9 12 36 16 60 6 35 4 42
-9 42 -12 0 -16 -11 -16 -44z"/>
<path d="M4081 2322 c-1 -22 -5 -24 -51 -20 l-49 3 -1 -634 c0 -591 -1 -637
-18 -665 -10 -17 -31 -40 -48 -51 -28 -19 -29 -22 -26 -90 3 -70 13 -88 42
-81 8 3 45 7 83 11 89 9 151 49 187 120 l25 50 3 668 3 667 -70 0 c-64 0 -70
2 -74 23 -4 22 -4 22 -6 -1z"/>
<path d="M922 2302 l-73 -3 3 -667 c3 -660 3 -668 25 -714 37 -81 100 -114
256 -132 55 -7 53 -8 60 84 5 64 4 65 -26 85 -17 11 -39 34 -49 51 -17 29 -18
71 -18 665 l0 634 -53 0 c-28 0 -85 -1 -125 -3z"/>
</g>
</svg>
